<svg xmlns="http://www.w3.org/2000/svg" xmlns:xlink="http://www.w3.org/1999/xlink" width="500" zoomAndPan="magnify" viewBox="0 0 375 374.999991" height="500" preserveAspectRatio="xMidYMid meet" version="1.0"><defs><g/><clipPath id="15e44f1156"><path d="M 79 104 L 280 104 L 280 210.023438 L 79 210.023438 Z M 79 104 " clip-rule="nonzero"/></clipPath><clipPath id="ab61c8eb31"><path d="M 279 44 L 350.476562 44 L 350.476562 116 L 279 116 Z M 279 44 " clip-rule="nonzero"/></clipPath><clipPath id="a5e310c7d9"><path d="M 76.726562 6.773438 L 280 6.773438 L 280 210.023438 L 76.726562 210.023438 Z M 76.726562 6.773438 " clip-rule="nonzero"/></clipPath></defs><g clip-path="url(#15e44f1156)"><path fill="#008ecd" d="M 279.535156 118.019531 C 274.6875 169.632812 231.277344 210.019531 178.421875 210.019531 C 129.640625 210.019531 88.910156 175.613281 79.101562 129.738281 C 80.03125 122.257812 83.410156 112.007812 94.386719 106.511719 C 112.980469 97.210938 136.511719 124.820312 154.230469 143.125 C 171.949219 161.4375 203.238281 181.996094 240.460938 168.628906 C 266.867188 159.144531 277.683594 134.1875 279.53125 118.019531 Z M 279.535156 118.019531 " fill-opacity="1" fill-rule="evenodd"/></g><g clip-path="url(#ab61c8eb31)"><path fill="#0a6e87" d="M 335.539062 113.335938 L 337.988281 110.871094 L 337.3125 98.949219 L 341.484375 94.742188 C 342.15625 94.0625 342.152344 92.953125 341.472656 92.28125 C 340.792969 91.605469 339.6875 91.609375 339.011719 92.289062 L 337.042969 94.273438 L 336.375 82.433594 L 339.890625 78.886719 C 340.566406 78.207031 340.558594 77.101562 339.878906 76.425781 C 339.199219 75.75 338.09375 75.753906 337.421875 76.433594 L 336.105469 77.761719 L 335.554688 68.027344 C 344.988281 57.996094 352.3125 47.667969 349.867188 45.242188 C 347.421875 42.8125 337.15625 50.222656 327.207031 59.742188 L 317.472656 59.265625 L 318.789062 57.941406 C 319.460938 57.261719 319.457031 56.15625 318.777344 55.480469 C 318.097656 54.804688 316.992188 54.808594 316.324219 55.492188 L 312.808594 59.039062 L 300.96875 58.460938 L 302.9375 56.476562 C 303.609375 55.796875 303.605469 54.6875 302.925781 54.019531 C 302.246094 53.34375 301.140625 53.347656 300.464844 54.027344 L 296.296875 58.230469 L 284.375 57.652344 L 281.925781 60.117188 L 315.042969 72.542969 C 305.289062 83.558594 295.960938 95.335938 295.960938 95.335938 L 281.210938 94.542969 L 279.691406 96.496094 L 289.976562 103.242188 L 289.082031 106.523438 L 292.355469 105.605469 L 299.171875 115.835938 L 301.113281 114.304688 L 300.210938 99.558594 C 300.210938 99.558594 311.910156 90.132812 322.847656 80.289062 L 335.523438 113.324219 Z M 335.539062 113.335938 " fill-opacity="1" fill-rule="evenodd"/></g><g clip-path="url(#a5e310c7d9)"><path fill="#00ccff" d="M 279.296875 96.359375 C 273.347656 45.910156 230.453125 6.773438 178.421875 6.773438 C 122.324219 6.773438 76.847656 52.273438 76.847656 108.398438 C 76.847656 111.183594 76.957031 113.941406 77.175781 116.664062 C 78.632812 77.152344 101.671875 59.242188 134.902344 65.3125 C 168.46875 71.445312 194.761719 107.53125 233.617188 116.089844 C 253.53125 120.480469 271.835938 112.984375 279.296875 96.359375 Z M 274.367188 136.417969 C 251.628906 155.097656 205.042969 148.503906 162.96875 110.296875 C 113.957031 65.78125 83.527344 84.078125 77.234375 117.359375 C 81.769531 169.289062 125.347656 210.019531 178.425781 210.019531 C 129.648438 210.019531 88.914062 175.613281 79.109375 129.738281 C 80.035156 122.257812 83.414062 112.007812 94.390625 106.511719 C 112.984375 97.210938 136.515625 124.820312 154.234375 143.125 C 171.953125 161.4375 203.242188 181.996094 240.464844 168.628906 C 257.980469 162.335938 268.640625 149.242188 274.367188 136.417969 Z M 274.367188 136.417969 " fill-opacity="1" fill-rule="evenodd"/></g><g fill="#424141" fill-opacity="1"><g transform="translate(3.721148, 298.32978)"><g><path d="M 86.40625 -65.84375 C 87.789062 -65.84375 88.859375 -65.609375 89.609375 -65.140625 C 90.367188 -64.679688 90.75 -64.09375 90.75 -63.375 C 90.75 -63.039062 90.648438 -62.609375 90.453125 -62.078125 C 90.253906 -61.617188 89.972656 -61.207031 89.609375 -60.84375 C 89.253906 -60.476562 88.925781 -60.210938 88.625 -60.046875 C 88.332031 -59.890625 88.117188 -59.742188 87.984375 -59.609375 C 86.929688 -59.015625 86.070312 -58.351562 85.40625 -57.625 C 84.75 -56.90625 84.191406 -55.789062 83.734375 -54.28125 L 71.578125 -11.671875 C 71.304688 -10.804688 71.171875 -9.976562 71.171875 -9.1875 C 71.171875 -8.394531 71.285156 -7.769531 71.515625 -7.3125 C 71.753906 -6.851562 72.101562 -6.257812 72.5625 -5.53125 C 72.625 -5.46875 72.800781 -5.222656 73.09375 -4.796875 C 73.394531 -4.367188 73.546875 -3.921875 73.546875 -3.453125 C 73.546875 -3.328125 73.484375 -3 73.359375 -2.46875 C 73.023438 -1.550781 72.394531 -0.910156 71.46875 -0.546875 C 70.550781 -0.179688 69.171875 0 67.328125 0 L 44.09375 0 C 42.707031 0 41.632812 -0.226562 40.875 -0.6875 C 40.113281 -1.15625 39.734375 -1.785156 39.734375 -2.578125 C 39.734375 -2.960938 39.832031 -3.390625 40.03125 -3.859375 C 40.300781 -4.378906 40.664062 -4.820312 41.125 -5.1875 C 41.582031 -5.550781 42.046875 -5.863281 42.515625 -6.125 C 43.566406 -6.71875 44.421875 -7.394531 45.078125 -8.15625 C 45.734375 -8.914062 46.296875 -10.085938 46.765625 -11.671875 L 51.5 -28.171875 L 34 -28.171875 L 29.265625 -11.671875 C 28.992188 -10.804688 28.859375 -9.976562 28.859375 -9.1875 C 28.859375 -8.394531 28.972656 -7.769531 29.203125 -7.3125 C 29.441406 -6.851562 29.789062 -6.257812 30.25 -5.53125 C 30.3125 -5.46875 30.488281 -5.222656 30.78125 -4.796875 C 31.082031 -4.367188 31.234375 -3.921875 31.234375 -3.453125 C 31.234375 -3.328125 31.171875 -3 31.046875 -2.46875 C 30.710938 -1.550781 30.082031 -0.910156 29.15625 -0.546875 C 28.238281 -0.179688 26.859375 0 25.015625 0 L 1.78125 0 C 0.394531 0 -0.675781 -0.226562 -1.4375 -0.6875 C -2.195312 -1.15625 -2.578125 -1.785156 -2.578125 -2.578125 C -2.578125 -2.960938 -2.476562 -3.390625 -2.28125 -3.859375 C -2.007812 -4.378906 -1.644531 -4.820312 -1.1875 -5.1875 C -0.726562 -5.550781 -0.265625 -5.863281 0.203125 -6.125 C 1.253906 -6.71875 2.109375 -7.394531 2.765625 -8.15625 C 3.421875 -8.914062 3.984375 -10.085938 4.453125 -11.671875 L 16.609375 -54.28125 C 16.867188 -55.132812 17 -55.957031 17 -56.75 C 17 -57.46875 16.882812 -58.070312 16.65625 -58.5625 C 16.425781 -59.0625 16.113281 -59.640625 15.71875 -60.296875 C 15.457031 -60.628906 15.226562 -60.976562 15.03125 -61.34375 C 14.832031 -61.707031 14.734375 -62.085938 14.734375 -62.484375 C 14.734375 -62.609375 14.796875 -62.9375 14.921875 -63.46875 C 15.191406 -64.320312 15.785156 -64.929688 16.703125 -65.296875 C 17.628906 -65.660156 19.015625 -65.84375 20.859375 -65.84375 L 44.09375 -65.84375 C 45.476562 -65.84375 46.546875 -65.609375 47.296875 -65.140625 C 48.054688 -64.679688 48.4375 -64.09375 48.4375 -63.375 C 48.4375 -63.039062 48.335938 -62.609375 48.140625 -62.078125 C 47.941406 -61.617188 47.660156 -61.207031 47.296875 -60.84375 C 46.941406 -60.476562 46.613281 -60.210938 46.3125 -60.046875 C 46.019531 -59.890625 45.804688 -59.742188 45.671875 -59.609375 C 44.617188 -59.015625 43.757812 -58.351562 43.09375 -57.625 C 42.4375 -56.90625 41.878906 -55.789062 41.421875 -54.28125 L 36.78125 -38.0625 L 54.28125 -38.0625 L 58.921875 -54.28125 C 59.179688 -55.132812 59.3125 -55.957031 59.3125 -56.75 C 59.3125 -57.46875 59.195312 -58.070312 58.96875 -58.5625 C 58.738281 -59.0625 58.425781 -59.640625 58.03125 -60.296875 C 57.769531 -60.628906 57.539062 -60.976562 57.34375 -61.34375 C 57.144531 -61.707031 57.046875 -62.085938 57.046875 -62.484375 C 57.046875 -62.609375 57.109375 -62.9375 57.234375 -63.46875 C 57.503906 -64.320312 58.097656 -64.929688 59.015625 -65.296875 C 59.941406 -65.660156 61.328125 -65.84375 63.171875 -65.84375 Z M 86.40625 -65.84375 "/></g></g></g><g fill="#424141" fill-opacity="1"><g transform="translate(83.698132, 298.32978)"><g><path d="M 38.265625 -52.296875 C 47.222656 -52.296875 53.828125 -50.484375 58.078125 -46.859375 C 62.328125 -43.234375 64.453125 -38.488281 64.453125 -32.625 C 64.453125 -30.644531 64.191406 -28.4375 63.671875 -26 C 62.410156 -20.59375 60.066406 -15.863281 56.640625 -11.8125 C 53.210938 -7.757812 49.007812 -4.628906 44.03125 -2.421875 C 39.0625 -0.210938 33.675781 0.890625 27.875 0.890625 C 18.71875 0.890625 11.945312 -0.9375 7.5625 -4.59375 C 3.175781 -8.25 0.984375 -13.109375 0.984375 -19.171875 C 0.984375 -21.222656 1.25 -23.5 1.78125 -26 C 3.03125 -31.144531 5.414062 -35.707031 8.9375 -39.6875 C 12.46875 -43.675781 16.785156 -46.773438 21.890625 -48.984375 C 27.003906 -51.191406 32.460938 -52.296875 38.265625 -52.296875 Z M 37.96875 -43.5 C 36.582031 -43.5 35.113281 -42.257812 33.5625 -39.78125 C 32.007812 -37.3125 30.179688 -32.648438 28.078125 -25.796875 C 25.960938 -18.941406 24.90625 -14.132812 24.90625 -11.375 C 24.90625 -9.914062 25.132812 -8.941406 25.59375 -8.453125 C 26.0625 -7.960938 26.691406 -7.71875 27.484375 -7.71875 C 28.867188 -7.582031 30.300781 -8.765625 31.78125 -11.265625 C 33.257812 -13.773438 35.125 -18.65625 37.375 -25.90625 C 39.414062 -32.289062 40.4375 -36.9375 40.4375 -39.84375 C 40.4375 -41.226562 40.21875 -42.179688 39.78125 -42.703125 C 39.351562 -43.234375 38.75 -43.5 37.96875 -43.5 Z M 37.96875 -43.5 "/></g></g></g><g fill="#424141" fill-opacity="1"><g transform="translate(146.078144, 298.32978)"><g><path d="M 44.1875 -51.015625 C 45.4375 -51.015625 46.40625 -50.75 47.09375 -50.21875 C 47.789062 -49.6875 48.140625 -48.960938 48.140625 -48.046875 C 48.140625 -47.785156 48.078125 -47.320312 47.953125 -46.65625 C 47.085938 -43.757812 45.109375 -42.3125 42.015625 -42.3125 L 36.28125 -42.3125 L 28.859375 -17.890625 C 28.535156 -16.898438 28.375 -15.878906 28.375 -14.828125 C 28.375 -13.640625 28.703125 -12.816406 29.359375 -12.359375 C 30.015625 -11.898438 30.9375 -11.671875 32.125 -11.671875 C 33.1875 -11.671875 34.503906 -11.800781 36.078125 -12.0625 C 36.867188 -12.257812 37.5625 -12.359375 38.15625 -12.359375 C 38.625 -12.359375 38.972656 -12.207031 39.203125 -11.90625 C 39.429688 -11.613281 39.546875 -11.238281 39.546875 -10.78125 C 39.609375 -9.457031 38.632812 -7.851562 36.625 -5.96875 C 34.613281 -4.09375 31.894531 -2.476562 28.46875 -1.125 C 25.039062 0.21875 21.253906 0.890625 17.109375 0.890625 C 12.617188 0.890625 9.023438 -0.128906 6.328125 -2.171875 C 3.628906 -4.210938 2.28125 -7.015625 2.28125 -10.578125 C 2.28125 -12.222656 2.539062 -13.804688 3.0625 -15.328125 L 9.390625 -34.890625 C 9.722656 -36.015625 9.890625 -36.90625 9.890625 -37.5625 C 9.890625 -38.882812 9.570312 -40.003906 8.9375 -40.921875 C 8.3125 -41.847656 7.441406 -42.804688 6.328125 -43.796875 C 5.335938 -44.710938 4.644531 -45.484375 4.25 -46.109375 C 3.851562 -46.742188 3.753906 -47.488281 3.953125 -48.34375 C 4.210938 -49.195312 4.769531 -49.851562 5.625 -50.3125 C 6.488281 -50.78125 7.84375 -51.015625 9.6875 -51.015625 L 15.21875 -51.015625 L 21.453125 -57.234375 C 23.628906 -59.410156 25.625 -60.925781 27.4375 -61.78125 C 29.25 -62.644531 31.601562 -63.078125 34.5 -63.078125 C 38.65625 -63.078125 40.734375 -61.492188 40.734375 -58.328125 C 40.734375 -57.335938 40.597656 -56.414062 40.328125 -55.5625 L 38.953125 -51.015625 Z M 44.1875 -51.015625 "/></g></g></g><g fill="#424141" fill-opacity="1"><g transform="translate(186.115926, 298.32978)"><g><path d="M 33.515625 -52.796875 C 41.878906 -52.796875 47.941406 -51.457031 51.703125 -48.78125 C 55.460938 -46.113281 57.34375 -42.707031 57.34375 -38.5625 C 57.34375 -37.300781 57.207031 -36.144531 56.9375 -35.09375 C 55.945312 -30.75 53.195312 -27.632812 48.6875 -25.75 C 44.175781 -23.875 38.851562 -22.9375 32.71875 -22.9375 C 29.625 -22.9375 26.722656 -23.132812 24.015625 -23.53125 C 23.953125 -20.101562 24.875 -17.695312 26.78125 -16.3125 C 28.695312 -14.925781 31.367188 -14.234375 34.796875 -14.234375 C 36.378906 -14.234375 37.894531 -14.414062 39.34375 -14.78125 C 40.789062 -15.144531 42.632812 -15.6875 44.875 -16.40625 C 46.726562 -17.070312 47.984375 -17.40625 48.640625 -17.40625 C 49.359375 -17.40625 49.71875 -16.972656 49.71875 -16.109375 C 49.789062 -13.804688 48.9375 -11.382812 47.15625 -8.84375 C 45.375 -6.3125 42.734375 -4.15625 39.234375 -2.375 C 35.742188 -0.59375 31.53125 0.296875 26.59375 0.296875 C 19.28125 0.296875 13.28125 -1.546875 8.59375 -5.234375 C 3.914062 -8.929688 1.578125 -14.304688 1.578125 -21.359375 C 1.578125 -23.328125 1.84375 -25.632812 2.375 -28.28125 C 4.019531 -36.382812 7.625 -42.492188 13.1875 -46.609375 C 18.757812 -50.734375 25.535156 -52.796875 33.515625 -52.796875 Z M 24.71875 -29.453125 C 24.976562 -29.390625 25.335938 -29.359375 25.796875 -29.359375 C 28.566406 -29.359375 30.675781 -30.644531 32.125 -33.21875 C 33.570312 -35.789062 34.265625 -38.65625 34.203125 -41.8125 C 34.140625 -43.65625 33.613281 -44.578125 32.625 -44.578125 C 31.894531 -44.578125 31.035156 -44 30.046875 -42.84375 C 29.066406 -41.695312 28.097656 -39.96875 27.140625 -37.65625 C 26.179688 -35.351562 25.375 -32.617188 24.71875 -29.453125 Z M 24.71875 -29.453125 "/></g></g></g><g fill="#424141" fill-opacity="1"><g transform="translate(239.005434, 298.32978)"><g><path d="M 31.53125 -73.0625 C 35.351562 -73.0625 38.171875 -72.332031 39.984375 -70.875 C 41.796875 -69.425781 42.703125 -67.453125 42.703125 -64.953125 C 42.703125 -63.503906 42.472656 -62.085938 42.015625 -60.703125 L 26.5 -10.28125 C 26.300781 -9.488281 26.203125 -8.796875 26.203125 -8.203125 C 26.203125 -7.347656 26.363281 -6.671875 26.6875 -6.171875 C 27.019531 -5.679688 27.484375 -5.207031 28.078125 -4.75 C 28.535156 -4.28125 28.863281 -3.894531 29.0625 -3.59375 C 29.257812 -3.300781 29.289062 -2.925781 29.15625 -2.46875 C 28.832031 -1.613281 28.175781 -0.988281 27.1875 -0.59375 C 26.195312 -0.195312 24.679688 0 22.640625 0 L 0.09375 0 C -1.613281 0 -2.863281 -0.28125 -3.65625 -0.84375 C -4.445312 -1.40625 -4.710938 -2.144531 -4.453125 -3.0625 C -4.179688 -3.851562 -3.488281 -4.546875 -2.375 -5.140625 C -1.382812 -5.671875 -0.5625 -6.296875 0.09375 -7.015625 C 0.757812 -7.742188 1.320312 -8.898438 1.78125 -10.484375 L 16.8125 -59.8125 C 17.007812 -60.40625 17.109375 -60.898438 17.109375 -61.296875 C 17.109375 -62.015625 16.925781 -62.601562 16.5625 -63.0625 C 16.195312 -63.53125 15.71875 -63.992188 15.125 -64.453125 C 14.46875 -64.984375 13.988281 -65.445312 13.6875 -65.84375 C 13.394531 -66.238281 13.347656 -66.765625 13.546875 -67.421875 C 13.941406 -68.941406 16.015625 -70.257812 19.765625 -71.375 C 23.523438 -72.5 27.445312 -73.0625 31.53125 -73.0625 Z M 31.53125 -73.0625 "/></g></g></g><g fill="#424141" fill-opacity="1"><g transform="translate(272.716202, 298.32978)"><g><path d="M 26 -52.296875 C 29.820312 -52.296875 32.625 -51.570312 34.40625 -50.125 C 36.1875 -48.675781 37.078125 -46.695312 37.078125 -44.1875 C 37.078125 -42.675781 36.84375 -41.226562 36.375 -39.84375 L 27.28125 -10.28125 C 27.082031 -9.488281 26.984375 -8.796875 26.984375 -8.203125 C 26.984375 -7.347656 27.148438 -6.671875 27.484375 -6.171875 C 27.816406 -5.679688 28.28125 -5.207031 28.875 -4.75 C 29.332031 -4.28125 29.660156 -3.894531 29.859375 -3.59375 C 30.054688 -3.300781 30.085938 -2.925781 29.953125 -2.46875 C 29.617188 -1.613281 28.957031 -0.988281 27.96875 -0.59375 C 26.988281 -0.195312 25.476562 0 23.4375 0 L 0.890625 0 C -0.828125 0 -2.078125 -0.28125 -2.859375 -0.84375 C -3.648438 -1.40625 -3.914062 -2.144531 -3.65625 -3.0625 C -3.394531 -3.851562 -2.703125 -4.546875 -1.578125 -5.140625 C -0.585938 -5.671875 0.234375 -6.296875 0.890625 -7.015625 C 1.546875 -7.742188 2.109375 -8.898438 2.578125 -10.484375 L 11.171875 -39.046875 C 11.367188 -39.640625 11.46875 -40.132812 11.46875 -40.53125 C 11.46875 -41.257812 11.300781 -41.835938 10.96875 -42.265625 C 10.644531 -42.691406 10.148438 -43.132812 9.484375 -43.59375 C 8.828125 -44.125 8.367188 -44.585938 8.109375 -44.984375 C 7.847656 -45.378906 7.816406 -45.90625 8.015625 -46.5625 C 8.398438 -48.082031 10.472656 -49.414062 14.234375 -50.5625 C 17.992188 -51.71875 21.914062 -52.296875 26 -52.296875 Z M 32.625 -74.140625 C 35.1875 -74.140625 37.320312 -73.300781 39.03125 -71.625 C 40.75 -69.945312 41.609375 -67.882812 41.609375 -65.4375 C 41.609375 -63.726562 41.164062 -62.050781 40.28125 -60.40625 C 39.394531 -58.757812 38.140625 -57.421875 36.515625 -56.390625 C 34.898438 -55.367188 33.109375 -54.859375 31.140625 -54.859375 C 28.628906 -54.859375 26.535156 -55.695312 24.859375 -57.375 C 23.179688 -59.0625 22.304688 -61.160156 22.234375 -63.671875 C 22.234375 -65.316406 22.660156 -66.945312 23.515625 -68.5625 C 24.378906 -70.175781 25.597656 -71.507812 27.171875 -72.5625 C 28.753906 -73.613281 30.570312 -74.140625 32.625 -74.140625 Z M 32.625 -74.140625 "/></g></g></g><g fill="#424141" fill-opacity="1"><g transform="translate(306.426969, 298.32978)"><g><path d="M 38.265625 -52.296875 C 47.222656 -52.296875 53.828125 -50.484375 58.078125 -46.859375 C 62.328125 -43.234375 64.453125 -38.488281 64.453125 -32.625 C 64.453125 -30.644531 64.191406 -28.4375 63.671875 -26 C 62.410156 -20.59375 60.066406 -15.863281 56.640625 -11.8125 C 53.210938 -7.757812 49.007812 -4.628906 44.03125 -2.421875 C 39.0625 -0.210938 33.675781 0.890625 27.875 0.890625 C 18.71875 0.890625 11.945312 -0.9375 7.5625 -4.59375 C 3.175781 -8.25 0.984375 -13.109375 0.984375 -19.171875 C 0.984375 -21.222656 1.25 -23.5 1.78125 -26 C 3.03125 -31.144531 5.414062 -35.707031 8.9375 -39.6875 C 12.46875 -43.675781 16.785156 -46.773438 21.890625 -48.984375 C 27.003906 -51.191406 32.460938 -52.296875 38.265625 -52.296875 Z M 37.96875 -43.5 C 36.582031 -43.5 35.113281 -42.257812 33.5625 -39.78125 C 32.007812 -37.3125 30.179688 -32.648438 28.078125 -25.796875 C 25.960938 -18.941406 24.90625 -14.132812 24.90625 -11.375 C 24.90625 -9.914062 25.132812 -8.941406 25.59375 -8.453125 C 26.0625 -7.960938 26.691406 -7.71875 27.484375 -7.71875 C 28.867188 -7.582031 30.300781 -8.765625 31.78125 -11.265625 C 33.257812 -13.773438 35.125 -18.65625 37.375 -25.90625 C 39.414062 -32.289062 40.4375 -36.9375 40.4375 -39.84375 C 40.4375 -41.226562 40.21875 -42.179688 39.78125 -42.703125 C 39.351562 -43.234375 38.75 -43.5 37.96875 -43.5 Z M 37.96875 -43.5 "/></g></g></g></svg>